<?xml version="1.0" standalone="no"?>
<!DOCTYPE svg PUBLIC "-//W3C//DTD SVG 20010904//EN"
 "http://www.w3.org/TR/2001/REC-SVG-20010904/DTD/svg10.dtd">
<svg version="1.0" xmlns="http://www.w3.org/2000/svg"
 width="252.000000pt" height="252.000000pt" viewBox="0 0 252.000000 252.000000"
 preserveAspectRatio="xMidYMid meet">
<metadata>
Created by potrace 1.11, written by Peter Selinger 2001-2013
</metadata>
<g transform="translate(0.000000,252.000000) scale(0.100000,-0.100000)"
fill="#000000" stroke="none">
<path d="M825 2422 c-32 -4 -60 -24 -77 -56 -8 -14 -7 -17 3 -10 7 4 4 -8 -8
-27 -11 -19 -25 -33 -31 -32 -6 2 -14 -6 -17 -17 -4 -11 -11 -18 -16 -15 -5 4
-9 -2 -9 -11 0 -10 -3 -15 -6 -11 -3 3 -14 -3 -25 -14 -10 -10 -26 -19 -35
-19 -9 0 -27 -9 -41 -20 -14 -11 -30 -17 -37 -13 -6 3 -8 3 -4 -2 4 -4 4 -13
-2 -19 -13 -16 -30 -97 -19 -90 8 4 14 -25 10 -48 0 -5 3 -8 9 -8 5 0 10 -5
10 -11 0 -7 11 -22 24 -34 14 -13 22 -26 18 -31 -4 -4 -2 -4 5 -1 19 11 42 -3
36 -21 -4 -9 -11 -20 -17 -24 -12 -8 31 -47 54 -49 35 -3 66 4 73 17 4 8 13
14 19 14 6 0 5 -7 -3 -17 -12 -14 -12 -16 0 -8 11 6 13 4 6 -11 -4 -10 -7 -29
-6 -42 0 -13 -4 -20 -9 -17 -6 3 -7 -1 -4 -10 7 -18 -36 -165 -48 -165 -4 0
-7 -3 -7 -7 3 -21 -2 -33 -13 -27 -7 4 -8 3 -4 -4 8 -14 -20 -72 -35 -72 -6 0
-8 -4 -4 -9 3 -5 -2 -16 -10 -24 -8 -9 -15 -19 -15 -23 0 -4 -7 -14 -15 -23
-47 -49 -105 -117 -105 -123 0 -4 -9 -10 -20 -13 -13 -4 -20 -15 -20 -32 0
-15 3 -24 6 -20 5 5 44 -33 123 -122 17 -19 28 -39 24 -45 -3 -6 -3 -8 2 -4 8
8 45 -33 45 -50 0 -6 4 -12 9 -14 5 -2 11 -10 13 -18 7 -31 22 -38 51 -24 15
8 27 18 27 23 0 5 9 11 20 14 21 5 45 -16 35 -32 -3 -7 0 -8 9 -5 9 3 16 2 16
-4 0 -5 20 -20 45 -33 25 -13 45 -27 45 -31 0 -5 6 -8 13 -8 7 0 31 -8 53 -19
21 -10 63 -29 92 -41 28 -13 52 -28 52 -32 0 -5 4 -7 9 -3 13 7 78 -51 97 -86
7 -15 14 -41 14 -57 0 -38 10 -42 81 -33 4 1 7 7 6 14 -1 35 4 58 12 53 5 -4
7 3 4 14 -3 11 0 20 6 20 6 0 11 5 11 11 0 18 53 60 68 54 7 -3 11 -1 8 4 -6
9 3 14 117 66 43 19 84 32 89 29 6 -4 8 -3 5 3 -3 5 11 18 31 27 20 10 37 16
37 15 0 -2 19 16 43 40 45 47 42 47 96 -1 19 -17 20 -17 38 2 10 10 18 23 18
28 0 5 7 15 16 23 12 10 20 10 35 1 19 -12 20 -10 18 32 -2 39 1 49 29 76 18
16 30 30 27 30 -3 0 17 22 45 50 27 27 50 57 50 65 0 9 -5 13 -10 10 -6 -3
-14 4 -19 17 -6 13 -10 19 -10 15 -2 -15 -52 40 -55 59 -2 10 -8 19 -14 19
-16 0 -54 54 -46 66 4 7 3 9 -3 6 -11 -7 -28 20 -24 36 1 5 -3 6 -8 3 -8 -6
-20 11 -17 25 0 4 -8 17 -19 30 -13 14 -14 20 -5 15 8 -4 7 -1 -4 8 -10 8 -19
26 -20 39 0 14 -4 23 -8 20 -5 -2 -9 3 -9 11 -2 20 -4 26 -14 50 -4 10 -8 31
-9 47 -1 16 -4 29 -7 29 -12 0 -16 59 -5 71 8 9 8 10 0 6 -7 -4 -11 3 -11 18
0 23 1 24 12 8 12 -16 27 -21 70 -26 11 -1 31 8 44 20 25 22 25 22 5 45 -12
15 -13 18 -3 10 14 -10 17 -10 15 0 0 7 2 14 6 16 16 5 71 68 79 90 5 13 11
43 13 68 4 41 2 48 -37 87 -24 25 -49 41 -59 39 -9 -2 -26 6 -37 17 -10 10
-21 17 -24 15 -7 -8 -57 56 -57 73 0 15 -2 16 -10 3 -9 -13 -14 -7 -11 13 0 4
-4 7 -10 7 -6 0 -8 8 -4 19 4 13 -2 25 -19 39 -14 10 -23 21 -21 24 3 3 -16 2
-42 -2 -27 -5 -52 -5 -57 -2 -5 3 -6 0 -3 -5 4 -6 0 -14 -9 -17 -10 -4 -13 -2
-8 7 4 6 -8 -5 -27 -25 -19 -21 -41 -38 -49 -38 -12 0 -13 -2 -1 -9 9 -6 10
-11 2 -15 -6 -4 -11 -4 -12 1 0 4 -4 -3 -10 -15 -5 -13 -18 -26 -29 -29 -11
-3 -20 -10 -20 -15 0 -6 -7 -7 -16 -4 -8 3 -12 2 -9 -4 3 -6 -3 -11 -14 -11
-12 -1 -27 -2 -33 -3 -7 -1 -16 3 -20 9 -5 6 -8 5 -8 -4 0 -10 -3 -11 -14 -2
-10 9 -16 8 -26 -4 -7 -8 -16 -12 -21 -9 -5 3 -8 0 -7 -7 2 -7 -2 -13 -9 -14
-6 0 -15 -4 -20 -9 -5 -6 -2 -6 7 -1 13 8 13 7 1 -8 -20 -25 -35 -21 -68 16
-30 35 -57 50 -67 39 -10 -9 -36 -11 -36 -2 0 5 -13 6 -30 4 -26 -5 -39 5
-114 80 -49 49 -94 86 -105 86 -11 0 -21 3 -23 8 -1 4 -16 5 -33 4z"/>
<path d="M195 1414 c-16 -21 -38 -55 -52 -83 -1 -1 -7 0 -13 4 -8 5 -8 11 1
21 10 12 9 13 -5 8 -9 -3 -16 -1 -16 5 0 7 -9 22 -21 34 l-21 22 6 -90 c8
-108 10 -122 25 -159 6 -15 12 -39 13 -52 1 -13 8 -26 14 -28 6 -2 15 -17 18
-33 4 -15 15 -36 23 -45 9 -10 13 -18 10 -18 -3 0 5 -12 19 -27 14 -15 22 -33
19 -40 -2 -8 -1 -12 4 -9 5 3 33 -21 64 -54 30 -33 58 -60 62 -60 10 0 35 -27
30 -32 -3 -3 1 -5 8 -5 12 0 73 -38 87 -54 3 -3 13 -8 22 -12 11 -4 15 -12 12
-22 -4 -9 -12 -14 -18 -12 -7 3 -11 -8 -11 -28 0 -18 3 -31 7 -29 4 3 12 -5
18 -16 6 -11 9 -20 6 -20 -2 0 12 -17 33 -38 20 -21 38 -37 41 -36 8 3 29 -23
24 -30 -2 -3 -1 -4 3 -1 9 7 34 -16 27 -26 -3 -5 1 -6 8 -4 8 3 23 -4 35 -15
12 -11 50 -34 85 -52 35 -17 64 -35 66 -39 2 -4 9 -6 16 -3 7 3 18 -2 25 -10
7 -8 19 -12 27 -9 8 3 14 0 14 -7 0 -6 4 -9 9 -6 5 3 27 -1 50 -9 23 -8 43
-14 46 -15 3 0 6 0 8 -1 47 -14 173 -29 279 -32 31 -1 54 1 52 4 -2 3 9 6 24
7 15 0 43 4 62 8 19 4 45 8 58 8 12 1 22 4 22 7 0 6 44 18 83 22 9 1 17 4 17
7 0 11 70 31 81 24 7 -4 9 -3 6 3 -6 9 29 32 44 29 4 0 16 8 28 18 12 11 21
15 21 10 0 -5 4 -4 8 1 14 21 95 74 104 69 5 -3 7 0 6 8 -2 7 3 12 10 10 8 -1
11 2 7 8 -3 5 5 14 19 20 14 5 26 14 26 20 0 15 26 40 34 35 3 -3 4 -2 1 1 -2
4 4 19 15 34 24 34 25 59 3 75 -16 12 -16 14 0 29 9 10 22 14 28 10 7 -4 9 -3
5 4 -3 6 3 13 14 17 11 3 20 11 20 16 0 6 4 8 9 5 5 -4 11 -3 13 2 1 4 21 21
43 37 22 17 46 38 53 48 7 9 18 14 24 11 6 -4 8 -2 4 4 -3 6 0 14 7 19 7 4 26
26 43 48 16 22 37 49 47 59 9 11 17 26 17 33 0 8 4 12 8 9 5 -3 9 0 9 7 0 7 9
32 21 57 32 71 54 168 58 260 3 76 2 83 -11 66 -8 -11 -15 -26 -15 -34 0 -9
-6 -12 -16 -8 -8 3 -13 2 -9 -3 7 -12 -5 -41 -17 -41 -6 0 -7 7 -4 16 3 8 2
12 -3 9 -5 -3 -12 4 -16 15 -3 11 -10 20 -15 20 -5 0 -11 9 -15 19 -3 11 -13
22 -23 26 -9 3 -13 3 -9 -1 4 -4 1 -14 -6 -22 -9 -12 -9 -16 1 -19 6 -3 12 -9
12 -14 0 -6 -5 -7 -10 -4 -13 8 -9 -17 4 -27 6 -4 4 -14 -5 -24 -8 -9 -13 -19
-11 -21 1 -1 2 -6 1 -10 -1 -5 0 -19 1 -32 1 -13 -3 -21 -8 -17 -5 3 -9 -2 -9
-12 0 -35 -3 -43 -15 -36 -7 4 -8 3 -4 -4 9 -16 -18 -78 -41 -91 -10 -6 -14
-11 -9 -11 6 0 -3 -13 -19 -30 -15 -16 -33 -27 -38 -23 -6 3 -7 1 -3 -5 8 -13
-28 -35 -39 -24 -5 4 -5 2 -1 -5 3 -7 -2 -14 -14 -18 -11 -3 -20 -11 -20 -16
0 -6 -4 -7 -10 -4 -6 3 -10 2 -10 -3 0 -15 -70 -53 -82 -46 -7 4 -8 2 -4 -4 7
-12 -32 -38 -49 -33 -5 1 -7 -1 -3 -5 8 -7 -82 -71 -94 -67 -5 2 -8 -4 -8 -12
0 -8 -7 -15 -16 -15 -8 0 -12 -4 -9 -10 3 -5 -1 -10 -9 -10 -9 0 -15 -3 -15
-7 1 -5 0 -11 -1 -15 -7 -23 -3 -36 22 -63 25 -27 26 -31 11 -47 -9 -10 -18
-16 -21 -13 -3 3 -11 -4 -19 -15 -8 -11 -21 -20 -29 -20 -8 0 -14 -4 -14 -8 0
-12 -50 -33 -61 -26 -5 3 -8 0 -7 -7 2 -7 -1 -13 -7 -14 -5 0 -16 -4 -22 -8
-7 -5 -13 -5 -13 -2 0 4 -7 -1 -16 -9 -8 -9 -22 -17 -30 -17 -27 -3 -32 -4
-40 -11 -12 -13 -46 -9 -38 4 4 7 3 8 -5 4 -6 -4 -9 -12 -6 -17 4 -5 0 -9 -7
-10 -7 0 -20 -2 -28 -4 -8 -1 -33 -6 -54 -9 -22 -4 -42 -9 -44 -11 -3 -3 -12
1 -20 8 -13 10 -14 9 -8 -1 10 -16 -25 -13 -36 3 -5 6 -8 5 -8 -2 0 -7 -7 -13
-15 -13 -8 0 -15 5 -15 11 0 8 -5 8 -15 -1 -8 -7 -15 -9 -15 -4 0 5 -16 10
-36 10 -47 2 -144 25 -144 34 0 4 -6 8 -12 7 -31 -1 -49 4 -44 11 2 4 -7 9
-22 10 -15 1 -29 7 -30 12 -2 6 -8 8 -13 4 -5 -3 -9 0 -9 5 0 6 -3 10 -7 9
-17 -3 -43 15 -36 25 4 6 0 8 -11 4 -10 -4 -19 -1 -22 8 -4 8 -9 13 -13 11 -3
-2 -22 9 -41 24 -34 28 -35 30 -19 57 9 15 21 27 26 26 12 -3 6 35 -8 53 -5 6
-5 15 -1 19 4 5 1 5 -5 1 -7 -4 -13 -3 -13 3 0 5 -13 18 -29 27 -17 10 -28 21
-25 26 3 5 2 8 -3 7 -19 -3 -31 3 -63 31 -25 22 -36 27 -42 18 -5 -9 -8 -8 -8
5 0 10 -8 21 -17 24 -17 7 -42 25 -71 53 -9 8 -18 14 -21 14 -13 -3 -30 9 -25
17 3 5 -3 6 -12 2 -12 -4 -15 -3 -10 5 4 7 1 12 -9 12 -9 0 -13 5 -10 10 4 6
3 10 -2 9 -20 -3 -34 2 -28 11 3 6 -2 10 -11 10 -10 0 -15 3 -11 6 3 3 -5 17
-19 31 -22 22 -28 36 -25 56 1 5 -3 6 -8 3 -8 -6 -41 61 -46 94 -1 8 -6 23
-10 33 -4 9 -5 24 -1 32 3 8 1 15 -4 15 -5 0 -8 20 -6 44 1 24 0 51 -4 60 -4
13 -8 12 -25 -10z"/>
</g>
</svg>
